<svg width="180" height="180" version="1.1" viewBox="0 0 180 180" xmlns="http://www.w3.org/2000/svg">
 <g stroke="#000">
  <rect x="79.411" y="109.18" width="43.317" height="62.523" rx="11.551" ry="9.978" fill="none" strokeWidth="1.344"/>
  <rect x="125.62" y="134.17" width="28.878" height="37.532" rx="5.7756" ry="5.0042" fill="none" strokeWidth="1.344"/>
  <path d="m156.29 38.059v23.712" strokeWidth="1.1461"/>
  <rect x="137.16" y="61.771" width="38.26" height="29.605" rx="2.9359" ry="6.3198" fill="none" strokeLinecap="round" strokeWidth="1.0982"/>
  <rect x="125.62" y="106.64" width="28.878" height="25.021" rx="2.8878" ry="2.5021" fill="none" strokeLinecap="round" strokeLinejoin="bevel" strokeWidth="1.344" style="paint-order:normal"/>
 </g>
 <g transform="matrix(1.2719 0 0 1.3142 -39.979 -32.576)">
  <rect x="40" y="140" width="40" height="15" rx="0" ry="0" stroke="#000" strokeLinecap="round" strokeWidth="1.4"/>
 </g>
 <path d="m36.455 15c-3.752 0-7.1377 0.02496-9.5859 0.06641-1.2241 0.02072-2.2148 0.04676-2.8984 0.07422-0.6836 0.02745-1.0605 0.05613-1.0605 0.08789v155.11c0 0.0318 0.37695 0.0624 1.0605 0.0898s1.6743 0.0515 2.8984 0.0723c2.4483 0.0414 5.834 0.0664 9.5859 0.0664s7.1377-0.0249 9.5859-0.0664c1.2241-0.0207 2.2148-0.0448 2.8984-0.0723 0.6836-0.02729 1.0605-0.05804 1.0605-0.0898v-155.11c0-0.03176-0.37695-0.06044-1.0605-0.08789s-1.6743-0.05349-2.8984-0.07422c-2.4483-0.041449-5.834-0.066406-9.5859-0.066406zm-10.455 38h21l-10.545 13.924zm21 2v28l-9.6738-15.115zm-21 0.03125 9.7363 12.854-9.7363 15.115zm10.5 13.969 10.5 16.012h-21zm-10.512 18.012h21l-10.545 13.924zm21 2v28l-9.6719-15.115zm-21 0.0293 9.7383 12.855-9.7383 15.115zm10.5 13.971 10.5 16.012h-21zm-10.557 17.955h21l-10.545 12.842zm21 1.8457v25.822l-9.6738-13.939zm-21 0.0273 9.7363 11.855-9.7363 13.939zm10.5 12.885 10.5 14.766h-21z" strokeLinecap="round" strokeLinejoin="round" strokeWidth="5.0369"/>
 <g transform="matrix(1.2719 0 0 1.3142 -39.979 -32.576)">
  <rect x="40" y="45" width="40" height="20"/>
  <g fill="#fff">
   <rect x="59" y="48.214" width="17.154" height="13.488"/>
   <g stroke="#fff" strokeWidth="1.4">
    <path d="m40 50.154 9.2787 0.02741"/>
    <path d="m40 60.111h9.2787"/>
    <path d="m40 55.133h9.2787"/>
   </g>
  </g>
 </g>
 <path d="m61.775 33.133v13.143h57.236v-13.143zm38.225 1.8398 7.582 4-7.582 5zm3.25 0h10.832l-5.416 3zm14.082 0v9l-7.584-5zm-54.332 0.027344 7 4-7 5zm3 0h10l-5 3zm13 0v9l-7-5zm2 0 7.5762 4-7.5762 5zm3.248 0h10.822l-5.4121 3zm14.07 0v9l-7.5762-5zm10.348 4.9727 5.416 4h-10.832zm-37.666 0.027344 5 4h-10zm18.658 0 5.4121 4h-10.822z" style=""/>
 <path d="m119.01 33.133v6.5723h38.166v-6.5723zm12.965 0.80469 4.9531 2.4199-4.9531 2.5801zm2 0h7l-3.4648 2zm9 0v5l-4.8457-2.5zm1.0391 0.02344 4.9531 2.4199-4.9531 2.5801zm2 0h7l-3.4648 2zm9 0v5l-4.8457-2.5zm-35.016 0.03906 4.9531 2.4199-4.9531 2.5801zm2 0h7l-3.4648 2zm9 0v5l-4.8457-2.5zm6.4766 2.9121 3.5 2.0254h-7zm12.039 0.02344 3.5 2.0254h-7zm-24.016 0.03906 3.5 2.0254h-7z" style=""/>
 <g fill="#fff" stroke="#000" strokeLinecap="round" strokeLinejoin="bevel" strokeWidth="4.8385">
  <path d="m88.075 119.15h25.99" style="paint-order:normal"/>
  <path d="m88.075 126.41h25.99" style="paint-order:normal"/>
  <path d="m88.075 133.67h25.99" style="paint-order:normal"/>
 </g>
 <g>
  <rect x="101.97" y="138.55" width="14.98" height="15.631" rx="2.1859" ry="2.2947" style="paint-order:normal"/>
  <rect x="85.999" y="155.9" width="30.954" height="11.244" rx="2.8878" ry="2.3142" style="paint-order:normal"/>
  <rect x="85.999" y="146.68" width="14.98" height="7.5064" rx="1.3537" ry="1.3231" style="paint-order:normal"/>
  <rect x="85.999" y="138.67" width="14.98" height="7.5064" rx="1.3537" ry="1.102" style="paint-order:normal"/>
 </g>
 <g fill="#fff" stroke="#000" strokeLinecap="round" strokeLinejoin="bevel" strokeWidth="4.3841">
  <path d="m129.39 112.71h21.338" style="paint-order:normal"/>
  <path d="m129.47 118.56h21.338" style="paint-order:normal"/>
  <path d="m129.39 124.4h21.338" style="paint-order:normal"/>
 </g>
 <rect x="132.57" y="150.68" width="14.98" height="15.631" rx="2.1859" ry="2.2947" style="paint-order:normal"/>
 <rect x="132.57" y="139.64" width="14.98" height="7.5064" rx="1.3537" ry="1.102" style="paint-order:normal"/>
</svg>
